<?xml version="1.0" standalone="no"?>
<!DOCTYPE svg PUBLIC "-//W3C//DTD SVG 20010904//EN"
 "http://www.w3.org/TR/2001/REC-SVG-20010904/DTD/svg10.dtd">
<svg version="1.0" xmlns="http://www.w3.org/2000/svg"
 width="222.000000pt" height="227.000000pt" viewBox="0 0 222.000000 227.000000"
 preserveAspectRatio="xMidYMid meet">
<metadata>
Created by potrace 1.16, written by Peter Selinger 2001-2019
</metadata>
<g transform="translate(0.000000,227.000000) scale(0.100000,-0.100000)"
fill="#000000" stroke="none">
<path d="M138 2174 c-60 -32 -58 3 -58 -884 0 -717 2 -815 16 -841 29 -56 49
-59 419 -59 184 0 335 3 335 7 0 3 -12 39 -27 79 l-28 73 -253 3 -254 3 -24
28 -24 28 0 680 0 681 29 29 29 29 632 0 632 0 29 -29 29 -29 0 -270 0 -269
63 -18 c34 -9 70 -20 80 -22 16 -5 17 16 17 346 0 387 -3 406 -59 435 -26 14
-119 16 -793 16 -655 -1 -767 -3 -790 -16z"/>
<path d="M400 1765 l0 -55 530 0 530 0 0 55 0 55 -530 0 -530 0 0 -55z"/>
<path d="M400 1450 l0 -50 418 0 c386 0 425 2 497 20 43 11 93 20 112 20 30 0
33 3 33 30 l0 30 -530 0 -530 0 0 -50z"/>
<path d="M1350 1324 c-164 -43 -320 -168 -398 -320 -93 -182 -96 -385 -6 -572
53 -110 167 -223 284 -281 140 -69 262 -85 408 -55 265 54 464 267 501 538 36
256 -104 522 -334 638 -97 50 -178 68 -294 67 -58 0 -131 -7 -161 -15z m293
-99 c411 -107 541 -626 227 -908 -164 -148 -390 -178 -598 -80 -74 34 -198
158 -234 233 -115 240 -52 507 156 664 125 95 299 130 449 91z"/>
<path d="M1625 760 l-210 -210 -108 108 -107 107 -50 -55 c-27 -30 -49 -58
-50 -61 0 -5 202 -204 286 -281 l30 -28 262 263 262 262 -53 53 -52 52 -210
-210z"/>
<path d="M400 1130 l0 -50 234 0 234 0 23 38 c13 20 27 43 32 50 6 9 -47 12
-258 12 l-265 0 0 -50z"/>
<path d="M400 815 l0 -55 184 0 c102 0 187 3 189 8 3 4 7 27 8 52 l4 45 -193
3 -192 2 0 -55z"/>
</g>
</svg>
