<?xml version="1.0" standalone="no"?>
<!DOCTYPE svg PUBLIC "-//W3C//DTD SVG 20010904//EN"
 "http://www.w3.org/TR/2001/REC-SVG-20010904/DTD/svg10.dtd">
<svg version="1.0" xmlns="http://www.w3.org/2000/svg"
 width="225.000000pt" height="225.000000pt" viewBox="0 0 225.000000 225.000000"
 preserveAspectRatio="xMidYMid meet">
<metadata>
Created by potrace 1.16, written by Peter Selinger 2001-2019
</metadata>
<g transform="translate(0.000000,225.000000) scale(0.100000,-0.100000)"
fill="#000000" stroke="none">
<path d="M1073 1955 c-18 -7 -74 -48 -126 -89 l-94 -76 -168 0 -168 0 8 -129
7 -128 -111 -88 c-88 -70 -114 -96 -126 -129 -14 -35 -15 -103 -13 -491 3
-447 3 -450 25 -481 48 -67 14 -64 818 -64 804 0 770 -3 818 64 22 31 22 34
25 481 2 388 1 456 -13 491 -12 33 -38 59 -125 128 l-110 88 0 129 0 129 -161
0 -162 0 -94 76 c-129 103 -165 117 -230 89z m577 -513 l0 -278 -122 -101
c-68 -55 -149 -122 -181 -148 l-58 -48 -27 25 c-99 94 -150 100 -244 29 l-64
-49 -175 144 -174 144 -6 158 c-4 86 -7 212 -8 280 l-1 122 530 0 530 0 0
-278z m-992 -409 c125 -102 231 -189 235 -193 7 -6 -454 -360 -468 -360 -3 0
-5 167 -5 370 0 204 3 370 6 370 3 0 108 -84 232 -187z m1172 -204 l0 -390
-27 21 c-165 129 -453 364 -453 369 1 8 463 390 473 391 4 0 7 -176 7 -391z
m-385 -165 l299 -239 -316 -3 c-174 -1 -462 -1 -640 0 l-323 3 324 243 c209
157 330 242 341 239 9 -2 151 -112 315 -243z"/>
<path d="M680 1585 l0 -35 445 0 445 0 0 35 0 35 -445 0 -445 0 0 -35z"/>
<path d="M680 1305 l0 -175 220 0 220 0 0 175 0 175 -220 0 -220 0 0 -175z"/>
<path d="M1247 1473 c-4 -3 -7 -19 -7 -35 l0 -28 165 0 165 0 0 35 0 35 -158
0 c-87 0 -162 -3 -165 -7z"/>
<path d="M1240 1300 l0 -30 165 0 165 0 0 30 0 30 -165 0 -165 0 0 -30z"/>
<path d="M1240 1160 l0 -30 165 0 165 0 0 30 0 30 -165 0 -165 0 0 -30z"/>
</g>
</svg>
